<svg id="Layer_1" xmlns="http://www.w3.org/2000/svg" viewBox="0 0 379.2 389.5">
    <style>
        .st0,.st1{display:none}.st0{fill:url(#SVGID_1_)}.st1{opacity:.65}.st2{display:inline;opacity:.87;fill:#f1f1f2}.st3,.st4,.st5{display:inline;opacity:.8698;fill:#f0f0f1}.st4,.st5{opacity:.8695;fill:#efeff0}.st5{opacity:.8693;fill:#eeeeef}.st6,.st7,.st8{display:inline;opacity:.8691;fill:#ededee}.st7,.st8{opacity:.8689;fill:#ececed}.st8{opacity:.8686;fill:#ebebec}.st10,.st11,.st9{display:inline;opacity:.8684;fill:#eaeaeb}.st10,.st11{opacity:.8682;fill:#e9e9ea}.st11{opacity:.868;fill:#e8e8e9}.st12,.st13,.st14{display:inline;opacity:.8677;fill:#e7e7e8}.st13,.st14{opacity:.8675;fill:#e6e6e7}.st14{opacity:.8673;fill:#e5e5e6}.st15,.st16,.st17{display:inline;opacity:.8671;fill:#e4e4e5}.st16,.st17{opacity:.8668;fill:#e3e3e4}.st17{opacity:.8666;fill:#e2e2e3}.st18,.st19,.st20{display:inline;opacity:.8664;fill:#e1e1e2}.st19,.st20{opacity:.8662;fill:#e0e0e1}.st20{opacity:.8659;fill:#dfdfe0}.st21,.st22,.st23{display:inline;opacity:.8657;fill:#dededf}.st22,.st23{opacity:.8655;fill:#ddddde}.st23{opacity:.8653;fill:#dcdcdd}.st24,.st25,.st26{display:inline;opacity:.865;fill:#dbdbdc}.st25,.st26{opacity:.8648;fill:#dadadb}.st26{opacity:.8646;fill:#d9d9da}.st27,.st28,.st29{display:inline;opacity:.8644;fill:#d8d8d9}.st28,.st29{opacity:.8641;fill:#d7d7d8}.st29{opacity:.8639;fill:#d6d6d7}.st30,.st31,.st32{display:inline;opacity:.8637;fill:#d5d5d6}.st31,.st32{opacity:.8634;fill:#d4d4d5}.st32{opacity:.8632;fill:#d3d3d4}.st33,.st34,.st35{display:inline;opacity:.863;fill:#d2d2d3}.st34,.st35{opacity:.8628;fill:#d1d1d2}.st35{opacity:.8625;fill:#d0d0d1}.st36,.st37,.st38{display:inline;opacity:.8623;fill:#cfcfd0}.st37,.st38{opacity:.8621;fill:#cececf}.st38{opacity:.8619;fill:#cdcdce}.st39,.st40,.st41{display:inline;opacity:.8616;fill:#cccccd}.st40,.st41{opacity:.8614;fill:#cbcbcc}.st41{opacity:.8612;fill:#cacacb}.st42,.st43,.st44{display:inline;opacity:.861;fill:#c9c9ca}.st43,.st44{opacity:.8607;fill:#c8c8c9}.st44{opacity:.8605;fill:#c7c7c8}.st45,.st46,.st47{display:inline;opacity:.8603;fill:#c6c6c7}.st46,.st47{opacity:.8601;fill:#c5c5c6}.st47{opacity:.8598;fill:#c4c4c5}.st48,.st49,.st50{display:inline;opacity:.8596;fill:#c3c3c4}.st49,.st50{opacity:.8594;fill:#c2c2c3}.st50{opacity:.8592;fill:#c1c1c2}.st51,.st52,.st53{display:inline;opacity:.8589;fill:#c0c0c1}.st52,.st53{opacity:.8587;fill:#bfbfc0}.st53{opacity:.8585;fill:#bebebf}.st54,.st55,.st56{display:inline;opacity:.8582;fill:#bdbdbe}.st55,.st56{opacity:.858;fill:#bcbcbd}.st56{opacity:.8578;fill:#bbbbbc}.st57,.st58,.st59{display:inline;opacity:.8576;fill:#bababb}.st58,.st59{opacity:.8573;fill:#b9b9ba}.st59{opacity:.8571;fill:#b8b8b9}.st60,.st61,.st62{display:inline;opacity:.8569;fill:#b7b7b8}.st61,.st62{opacity:.8567;fill:#b6b6b7}.st62{opacity:.8564;fill:#b5b5b6}.st63,.st64,.st65{display:inline;opacity:.8562;fill:#b4b4b5}.st64,.st65{opacity:.856;fill:#b3b3b4}.st65{opacity:.8558;fill:#b2b2b3}.st66,.st67,.st68{display:inline;opacity:.8555;fill:#b1b1b2}.st67,.st68{opacity:.8553;fill:#b0b0b1}.st68{opacity:.8551;fill:#afafb0}.st69,.st70,.st71{display:inline;opacity:.8549;fill:#aeaeaf}.st70,.st71{opacity:.8546;fill:#adadae}.st71{opacity:.8544;fill:#acacad}.st72,.st73,.st74{display:inline;opacity:.8542;fill:#ababac}.st73,.st74{opacity:.854;fill:#aaaaab}.st74{opacity:.8537;fill:#a9a9aa}.st75,.st76,.st77{display:inline;opacity:.8535;fill:#a8a8a9}.st76,.st77{opacity:.8533;fill:#a7a7a8}.st77{opacity:.8531;fill:#a6a6a7}.st78,.st79,.st80{display:inline;opacity:.8528;fill:#a5a5a6}.st79,.st80{opacity:.8526;fill:#a4a4a5}.st80{opacity:.8524;fill:#a3a3a4}.st81,.st82,.st83{display:inline;opacity:.8521;fill:#a2a2a3}.st82,.st83{opacity:.8519;fill:#a1a1a2}.st83{opacity:.8517;fill:#a0a0a1}.st84,.st85,.st86{display:inline;opacity:.8515;fill:#9f9fa0}.st85,.st86{opacity:.8512;fill:#9e9e9f}.st86{opacity:.851;fill:#9d9d9e}.st87,.st88,.st89{display:inline;opacity:.8508;fill:#9c9c9d}.st88,.st89{opacity:.8506;fill:#9b9b9c}.st89{opacity:.8503;fill:#9a9a9b}.st90,.st91,.st92{display:inline;opacity:.8501;fill:#99999a}.st91,.st92{opacity:.8499;fill:#989899}.st92{opacity:.8497;fill:#979798}.st93,.st94,.st95{display:inline;opacity:.8494;fill:#969697}.st94,.st95{opacity:.8492;fill:#959596}.st95{opacity:.849;fill:#949495}.st96,.st97,.st98{display:inline;opacity:.8488;fill:#939394}.st97,.st98{opacity:.8485;fill:#929293}.st98{opacity:.8483;fill:#919192}.st100,.st101,.st99{display:inline;opacity:.8481;fill:#909091}.st100,.st101{opacity:.8479;fill:#8f8f90}.st101{opacity:.8476;fill:#8e8e8f}.st102,.st103,.st104{display:inline;opacity:.8474;fill:#8d8d8e}.st103,.st104{opacity:.8472;fill:#8c8c8d}.st104{opacity:.8469;fill:#8b8b8c}.st105,.st106,.st107{display:inline;opacity:.8467;fill:#8a8a8b}.st106,.st107{opacity:.8465;fill:#89898a}.st107{opacity:.8463;fill:#888889}.st108,.st109,.st110{display:inline;opacity:.846;fill:#878788}.st109,.st110{opacity:.8458;fill:#868687}.st110{opacity:.8456;fill:#858586}.st111,.st112,.st113{display:inline;opacity:.8454;fill:#848485}.st112,.st113{opacity:.8451;fill:#838384}.st113{opacity:.8449;fill:#828283}.st114,.st115,.st116{display:inline;opacity:.8447;fill:#818182}.st115,.st116{opacity:.8445;fill:#808081}.st116{opacity:.8442;fill:#7f7f80}.st117,.st118,.st119{display:inline;opacity:.844;fill:#7e7e7f}.st118,.st119{opacity:.8438;fill:#7d7d7e}.st119{opacity:.8436;fill:#7c7c7d}.st120,.st121,.st122{display:inline;opacity:.8433;fill:#7b7b7c}.st121,.st122{opacity:.8431;fill:#7a7a7b}.st122{opacity:.8429;fill:#79797a}.st123,.st124,.st125{display:inline;opacity:.8427;fill:#787879}.st124,.st125{opacity:.8424;fill:#777778}.st125{opacity:.8422;fill:#767677}.st126,.st127,.st128{display:inline;opacity:.842;fill:#757576}.st127,.st128{opacity:.8418;fill:#747475}.st128{opacity:.8415;fill:#737374}.st129,.st130,.st131{display:inline;opacity:.8413;fill:#727273}.st130,.st131{opacity:.8411;fill:#717172}.st131{opacity:.8408;fill:#707071}.st132,.st133,.st134{display:inline;opacity:.8406;fill:#6f6f70}.st133,.st134{opacity:.8404;fill:#6e6e6f}.st134{opacity:.8402;fill:#6d6d6e}.st135,.st136,.st137{display:inline;opacity:.8399;fill:#6c6c6d}.st136,.st137{opacity:.8397;fill:#6b6b6c}.st137{opacity:.8395;fill:#6a6a6b}.st138,.st139,.st140{display:inline;opacity:.8393;fill:#69696a}.st139,.st140{opacity:.839;fill:#686869}.st140{opacity:.8388;fill:#676768}.st141,.st142,.st143{display:inline;opacity:.8386;fill:#666667}.st142,.st143{opacity:.8384;fill:#656566}.st143{opacity:.8381;fill:#646465}.st144,.st145,.st146{display:inline;opacity:.8379;fill:#636364}.st145,.st146{opacity:.8377;fill:#626263}.st146{opacity:.8375;fill:#616162}.st147,.st148,.st149{display:inline;opacity:.8372;fill:#606061}.st148,.st149{opacity:.837;fill:#5f5f60}.st149{opacity:.8368;fill:#5e5e5f}.st150,.st151,.st152{display:inline;opacity:.8366;fill:#5d5d5e}.st151,.st152{opacity:.8363;fill:#5c5c5d}.st152{opacity:.8361;fill:#5b5b5c}.st153,.st154,.st155{display:inline;opacity:.8359;fill:#5a5a5b}.st154,.st155{opacity:.8357;fill:#59595a}.st155{opacity:.8354;fill:#585859}.st156,.st157,.st158{display:inline;opacity:.8352;fill:#575758}.st157,.st158{opacity:.835;fill:#565657}.st158{opacity:.8347;fill:#555556}.st159,.st160,.st161{display:inline;opacity:.8345;fill:#545455}.st160,.st161{opacity:.8343;fill:#535354}.st161{opacity:.8341;fill:#525253}.st162,.st163,.st164{display:inline;opacity:.8338;fill:#515152}.st163,.st164{opacity:.8336;fill:#505051}.st164{opacity:.8334;fill:#4f4f50}.st165,.st166,.st167{display:inline;opacity:.8332;fill:#4e4e4f}.st166,.st167{opacity:.8329;fill:#4d4d4e}.st167{opacity:.8327;fill:#4c4c4d}.st168,.st169,.st170{display:inline;opacity:.8325;fill:#4b4b4c}.st169,.st170{opacity:.8323;fill:#4a4a4b}.st170{opacity:.832;fill:#49494a}.st171,.st172,.st173{display:inline;opacity:.8318;fill:#484849}.st172,.st173{opacity:.8316;fill:#474748}.st173{opacity:.8314;fill:#464647}.st174,.st175,.st176{display:inline;opacity:.8311;fill:#454546}.st175,.st176{opacity:.8309;fill:#444445}.st176{opacity:.8307;fill:#434344}.st177,.st178,.st179{display:inline;opacity:.8305;fill:#424243}.st178,.st179{opacity:.8302;fill:#414142}.st179{opacity:.83;fill:#404041}.st180{display:none}.st181{display:inline}.st182{fill:#fff}.st183{fill:url(#SVGID_2_)}.st184{fill:url(#SVGID_3_)}.st185{fill:url(#SVGID_4_)}.st186{fill:url(#SVGID_5_)}.st187{fill:url(#SVGID_6_)}.st188{fill:url(#SVGID_7_)}.st189{fill:url(#SVGID_8_)}.st190{fill:url(#SVGID_9_)}.st191{fill:url(#SVGID_10_)}.st192{fill:url(#SVGID_11_)}
    </style>
    <radialGradient id="SVGID_1_" cx="187.355" cy="185.907" r="519.112" gradientUnits="userSpaceOnUse">
        <stop offset="0" stop-color="#000036"/>
        <stop offset=".309" stop-color="#003"/>
        <stop offset=".557" stop-color="#000029"/>
        <stop offset=".784" stop-color="#000018"/>
        <stop offset=".997"/>
        <stop offset="1"/>
    </radialGradient>
    <path class="st0" d="M-218.4-196h800v800h-800z"/>
    <g class="st1">
        <ellipse class="st2" cx="189.6" cy="416.6" rx="245.3" ry="20.4"/>
        <ellipse class="st3" cx="189.6" cy="416.6" rx="244.3" ry="20.3"/>
        <ellipse class="st4" cx="189.6" cy="416.6" rx="243.3" ry="20.2"/>
        <ellipse class="st5" cx="189.6" cy="416.6" rx="242.3" ry="20.1"/>
        <ellipse class="st6" cx="189.6" cy="416.6" rx="241.3" ry="20"/>
        <ellipse class="st7" cx="189.6" cy="416.6" rx="240.4" ry="19.9"/>
        <ellipse class="st8" cx="189.6" cy="416.6" rx="239.4" ry="19.8"/>
        <ellipse class="st9" cx="189.6" cy="416.6" rx="238.4" ry="19.7"/>
        <ellipse class="st10" cx="189.6" cy="416.6" rx="237.4" ry="19.6"/>
        <ellipse class="st11" cx="189.6" cy="416.6" rx="236.4" ry="19.5"/>
        <ellipse class="st12" cx="189.6" cy="416.6" rx="235.5" ry="19.4"/>
        <ellipse class="st13" cx="189.6" cy="416.6" rx="234.5" ry="19.4"/>
        <ellipse class="st14" cx="189.6" cy="416.6" rx="233.5" ry="19.3"/>
        <ellipse class="st15" cx="189.6" cy="416.6" rx="232.5" ry="19.2"/>
        <ellipse class="st16" cx="189.6" cy="416.6" rx="231.5" ry="19.1"/>
        <ellipse class="st17" cx="189.6" cy="416.6" rx="230.6" ry="19"/>
        <ellipse class="st18" cx="189.6" cy="416.6" rx="229.6" ry="18.9"/>
        <ellipse class="st19" cx="189.6" cy="416.6" rx="228.6" ry="18.8"/>
        <ellipse class="st20" cx="189.6" cy="416.6" rx="227.6" ry="18.7"/>
        <ellipse class="st21" cx="189.6" cy="416.6" rx="226.6" ry="18.6"/>
        <ellipse class="st22" cx="189.6" cy="416.6" rx="225.7" ry="18.5"/>
        <ellipse class="st23" cx="189.6" cy="416.6" rx="224.7" ry="18.4"/>
        <ellipse class="st24" cx="189.6" cy="416.6" rx="223.7" ry="18.3"/>
        <ellipse class="st25" cx="189.6" cy="416.6" rx="222.7" ry="18.2"/>
        <ellipse class="st26" cx="189.6" cy="416.6" rx="221.7" ry="18.1"/>
        <ellipse class="st27" cx="189.6" cy="416.6" rx="220.8" ry="18"/>
        <ellipse class="st28" cx="189.6" cy="416.6" rx="219.8" ry="17.9"/>
        <ellipse class="st29" cx="189.6" cy="416.6" rx="218.8" ry="17.8"/>
        <ellipse class="st30" cx="189.6" cy="416.6" rx="217.8" ry="17.7"/>
        <ellipse class="st31" cx="189.6" cy="416.6" rx="216.8" ry="17.6"/>
        <ellipse class="st32" cx="189.6" cy="416.6" rx="215.9" ry="17.5"/>
        <ellipse class="st33" cx="189.6" cy="416.6" rx="214.9" ry="17.4"/>
        <ellipse class="st34" cx="189.6" cy="416.6" rx="213.9" ry="17.4"/>
        <ellipse class="st35" cx="189.6" cy="416.6" rx="212.9" ry="17.3"/>
        <ellipse class="st36" cx="189.6" cy="416.6" rx="211.9" ry="17.2"/>
        <ellipse class="st37" cx="189.6" cy="416.6" rx="211" ry="17.1"/>
        <ellipse class="st38" cx="189.6" cy="416.6" rx="210" ry="17"/>
        <ellipse class="st39" cx="189.6" cy="416.6" rx="209" ry="16.9"/>
        <ellipse class="st40" cx="189.6" cy="416.6" rx="208" ry="16.8"/>
        <ellipse class="st41" cx="189.6" cy="416.6" rx="207" ry="16.7"/>
        <ellipse class="st42" cx="189.6" cy="416.6" rx="206.1" ry="16.6"/>
        <ellipse class="st43" cx="189.6" cy="416.6" rx="205.1" ry="16.5"/>
        <ellipse class="st44" cx="189.6" cy="416.6" rx="204.1" ry="16.4"/>
        <ellipse class="st45" cx="189.6" cy="416.6" rx="203.1" ry="16.3"/>
        <ellipse class="st46" cx="189.6" cy="416.6" rx="202.1" ry="16.2"/>
        <ellipse class="st47" cx="189.6" cy="416.6" rx="201.2" ry="16.1"/>
        <ellipse class="st48" cx="189.6" cy="416.6" rx="200.2" ry="16"/>
        <ellipse class="st49" cx="189.6" cy="416.6" rx="199.2" ry="15.9"/>
        <ellipse class="st50" cx="189.6" cy="416.6" rx="198.2" ry="15.8"/>
        <ellipse class="st51" cx="189.6" cy="416.6" rx="197.2" ry="15.7"/>
        <ellipse class="st52" cx="189.6" cy="416.6" rx="196.3" ry="15.6"/>
        <ellipse class="st53" cx="189.6" cy="416.6" rx="195.3" ry="15.5"/>
        <ellipse class="st54" cx="189.6" cy="416.6" rx="194.3" ry="15.4"/>
        <ellipse class="st55" cx="189.6" cy="416.6" rx="193.3" ry="15.4"/>
        <ellipse class="st56" cx="189.6" cy="416.6" rx="192.3" ry="15.3"/>
        <ellipse class="st57" cx="189.6" cy="416.6" rx="191.4" ry="15.2"/>
        <ellipse class="st58" cx="189.6" cy="416.6" rx="190.4" ry="15.1"/>
        <ellipse class="st59" cx="189.6" cy="416.6" rx="189.4" ry="15"/>
        <ellipse class="st60" cx="189.6" cy="416.6" rx="188.4" ry="14.9"/>
        <ellipse class="st61" cx="189.6" cy="416.6" rx="187.4" ry="14.8"/>
        <ellipse class="st62" cx="189.6" cy="416.6" rx="186.5" ry="14.7"/>
        <ellipse class="st63" cx="189.6" cy="416.6" rx="185.5" ry="14.6"/>
        <ellipse class="st64" cx="189.6" cy="416.6" rx="184.5" ry="14.5"/>
        <ellipse class="st65" cx="189.6" cy="416.6" rx="183.5" ry="14.4"/>
        <ellipse class="st66" cx="189.6" cy="416.6" rx="182.5" ry="14.3"/>
        <ellipse class="st67" cx="189.6" cy="416.6" rx="181.6" ry="14.2"/>
        <ellipse class="st68" cx="189.6" cy="416.6" rx="180.6" ry="14.1"/>
        <ellipse class="st69" cx="189.6" cy="416.6" rx="179.6" ry="14"/>
        <ellipse class="st70" cx="189.6" cy="416.6" rx="178.6" ry="13.9"/>
        <ellipse class="st71" cx="189.6" cy="416.6" rx="177.6" ry="13.8"/>
        <ellipse class="st72" cx="189.6" cy="416.6" rx="176.6" ry="13.7"/>
        <ellipse class="st73" cx="189.6" cy="416.6" rx="175.7" ry="13.6"/>
        <ellipse class="st74" cx="189.6" cy="416.6" rx="174.7" ry="13.5"/>
        <ellipse class="st75" cx="189.6" cy="416.6" rx="173.7" ry="13.5"/>
        <ellipse class="st76" cx="189.6" cy="416.6" rx="172.7" ry="13.4"/>
        <ellipse class="st77" cx="189.6" cy="416.6" rx="171.7" ry="13.3"/>
        <ellipse class="st78" cx="189.6" cy="416.6" rx="170.8" ry="13.2"/>
        <ellipse class="st79" cx="189.6" cy="416.6" rx="169.8" ry="13.1"/>
        <ellipse class="st80" cx="189.6" cy="416.6" rx="168.8" ry="13"/>
        <ellipse class="st81" cx="189.6" cy="416.6" rx="167.8" ry="12.9"/>
        <ellipse class="st82" cx="189.6" cy="416.6" rx="166.8" ry="12.8"/>
        <ellipse class="st83" cx="189.6" cy="416.6" rx="165.9" ry="12.7"/>
        <ellipse class="st84" cx="189.6" cy="416.6" rx="164.9" ry="12.6"/>
        <ellipse class="st85" cx="189.6" cy="416.6" rx="163.9" ry="12.5"/>
        <ellipse class="st86" cx="189.6" cy="416.6" rx="162.9" ry="12.4"/>
        <ellipse class="st87" cx="189.6" cy="416.6" rx="161.9" ry="12.3"/>
        <ellipse class="st88" cx="189.6" cy="416.6" rx="161" ry="12.2"/>
        <ellipse class="st89" cx="189.6" cy="416.6" rx="160" ry="12.1"/>
        <ellipse class="st90" cx="189.6" cy="416.6" rx="159" ry="12"/>
        <ellipse class="st91" cx="189.6" cy="416.6" rx="158" ry="11.9"/>
        <ellipse class="st92" cx="189.6" cy="416.6" rx="157" ry="11.8"/>
        <ellipse class="st93" cx="189.6" cy="416.6" rx="156.1" ry="11.7"/>
        <ellipse class="st94" cx="189.6" cy="416.6" rx="155.1" ry="11.6"/>
        <ellipse class="st95" cx="189.6" cy="416.6" rx="154.1" ry="11.5"/>
        <ellipse class="st96" cx="189.6" cy="416.6" rx="153.1" ry="11.5"/>
        <ellipse class="st97" cx="189.6" cy="416.6" rx="152.1" ry="11.4"/>
        <ellipse class="st98" cx="189.6" cy="416.6" rx="151.2" ry="11.3"/>
        <ellipse class="st99" cx="189.6" cy="416.6" rx="150.2" ry="11.2"/>
        <ellipse class="st100" cx="189.6" cy="416.6" rx="149.2" ry="11.1"/>
        <ellipse class="st101" cx="189.6" cy="416.6" rx="148.2" ry="11"/>
        <ellipse class="st102" cx="189.6" cy="416.6" rx="147.2" ry="10.9"/>
        <ellipse class="st103" cx="189.6" cy="416.6" rx="146.3" ry="10.8"/>
        <ellipse class="st104" cx="189.6" cy="416.6" rx="145.3" ry="10.7"/>
        <ellipse class="st105" cx="189.6" cy="416.6" rx="144.3" ry="10.6"/>
        <ellipse class="st106" cx="189.6" cy="416.6" rx="143.3" ry="10.5"/>
        <ellipse class="st107" cx="189.6" cy="416.6" rx="142.3" ry="10.4"/>
        <ellipse class="st108" cx="189.6" cy="416.6" rx="141.4" ry="10.3"/>
        <ellipse class="st109" cx="189.6" cy="416.6" rx="140.4" ry="10.2"/>
        <ellipse class="st110" cx="189.6" cy="416.6" rx="139.4" ry="10.1"/>
        <ellipse class="st111" cx="189.6" cy="416.6" rx="138.4" ry="10"/>
        <ellipse class="st112" cx="189.6" cy="416.6" rx="137.4" ry="9.9"/>
        <ellipse class="st113" cx="189.6" cy="416.6" rx="136.5" ry="9.8"/>
        <ellipse class="st114" cx="189.6" cy="416.6" rx="135.5" ry="9.7"/>
        <ellipse class="st115" cx="189.6" cy="416.6" rx="134.5" ry="9.6"/>
        <ellipse class="st116" cx="189.6" cy="416.6" rx="133.5" ry="9.5"/>
        <ellipse class="st117" cx="189.6" cy="416.6" rx="132.5" ry="9.5"/>
        <ellipse class="st118" cx="189.6" cy="416.6" rx="131.6" ry="9.4"/>
        <ellipse class="st119" cx="189.6" cy="416.6" rx="130.6" ry="9.3"/>
        <ellipse class="st120" cx="189.6" cy="416.6" rx="129.6" ry="9.2"/>
        <ellipse class="st121" cx="189.6" cy="416.6" rx="128.6" ry="9.1"/>
        <ellipse class="st122" cx="189.6" cy="416.6" rx="127.6" ry="9"/>
        <ellipse class="st123" cx="189.6" cy="416.6" rx="126.7" ry="8.9"/>
        <ellipse class="st124" cx="189.6" cy="416.6" rx="125.7" ry="8.8"/>
        <ellipse class="st125" cx="189.6" cy="416.6" rx="124.7" ry="8.7"/>
        <ellipse class="st126" cx="189.6" cy="416.6" rx="123.7" ry="8.6"/>
        <ellipse class="st127" cx="189.6" cy="416.6" rx="122.7" ry="8.5"/>
        <ellipse class="st128" cx="189.6" cy="416.6" rx="121.8" ry="8.4"/>
        <ellipse class="st129" cx="189.6" cy="416.6" rx="120.8" ry="8.3"/>
        <ellipse class="st130" cx="189.6" cy="416.6" rx="119.8" ry="8.2"/>
        <ellipse class="st131" cx="189.6" cy="416.6" rx="118.8" ry="8.1"/>
        <ellipse class="st132" cx="189.6" cy="416.6" rx="117.8" ry="8"/>
        <ellipse class="st133" cx="189.6" cy="416.6" rx="116.9" ry="7.9"/>
        <ellipse class="st134" cx="189.6" cy="416.6" rx="115.9" ry="7.8"/>
        <ellipse class="st135" cx="189.6" cy="416.6" rx="114.9" ry="7.7"/>
        <ellipse class="st136" cx="189.6" cy="416.6" rx="113.9" ry="7.6"/>
        <ellipse class="st137" cx="189.6" cy="416.6" rx="112.9" ry="7.6"/>
        <ellipse class="st138" cx="189.6" cy="416.6" rx="112" ry="7.5"/>
        <ellipse class="st139" cx="189.6" cy="416.6" rx="111" ry="7.4"/>
        <ellipse class="st140" cx="189.6" cy="416.6" rx="110" ry="7.3"/>
        <ellipse class="st141" cx="189.6" cy="416.6" rx="109" ry="7.2"/>
        <ellipse class="st142" cx="189.6" cy="416.6" rx="108" ry="7.1"/>
        <ellipse class="st143" cx="189.6" cy="416.6" rx="107.1" ry="7"/>
        <ellipse class="st144" cx="189.6" cy="416.6" rx="106.1" ry="6.9"/>
        <ellipse class="st145" cx="189.6" cy="416.6" rx="105.1" ry="6.8"/>
        <ellipse class="st146" cx="189.6" cy="416.6" rx="104.1" ry="6.7"/>
        <ellipse class="st147" cx="189.6" cy="416.6" rx="103.1" ry="6.6"/>
        <ellipse class="st148" cx="189.6" cy="416.6" rx="102.2" ry="6.5"/>
        <ellipse class="st149" cx="189.6" cy="416.6" rx="101.2" ry="6.4"/>
        <ellipse class="st150" cx="189.6" cy="416.6" rx="100.2" ry="6.3"/>
        <ellipse class="st151" cx="189.6" cy="416.6" rx="99.2" ry="6.2"/>
        <ellipse class="st152" cx="189.6" cy="416.6" rx="98.2" ry="6.1"/>
        <ellipse class="st153" cx="189.6" cy="416.6" rx="97.3" ry="6"/>
        <ellipse class="st154" cx="189.6" cy="416.6" rx="96.3" ry="5.9"/>
        <ellipse class="st155" cx="189.6" cy="416.6" rx="95.3" ry="5.8"/>
        <ellipse class="st156" cx="189.6" cy="416.6" rx="94.3" ry="5.7"/>
        <ellipse class="st157" cx="189.6" cy="416.6" rx="93.3" ry="5.6"/>
        <ellipse class="st158" cx="189.6" cy="416.6" rx="92.4" ry="5.6"/>
        <ellipse class="st159" cx="189.6" cy="416.6" rx="91.4" ry="5.5"/>
        <ellipse class="st160" cx="189.6" cy="416.6" rx="90.4" ry="5.4"/>
        <ellipse class="st161" cx="189.6" cy="416.6" rx="89.4" ry="5.3"/>
        <ellipse class="st162" cx="189.6" cy="416.6" rx="88.4" ry="5.2"/>
        <ellipse class="st163" cx="189.6" cy="416.6" rx="87.5" ry="5.1"/>
        <ellipse class="st164" cx="189.6" cy="416.6" rx="86.5" ry="5"/>
        <ellipse class="st165" cx="189.6" cy="416.6" rx="85.5" ry="4.9"/>
        <ellipse class="st166" cx="189.6" cy="416.6" rx="84.5" ry="4.8"/>
        <ellipse class="st167" cx="189.6" cy="416.6" rx="83.5" ry="4.7"/>
        <ellipse class="st168" cx="189.6" cy="416.6" rx="82.6" ry="4.6"/>
        <ellipse class="st169" cx="189.6" cy="416.6" rx="81.6" ry="4.5"/>
        <ellipse class="st170" cx="189.6" cy="416.6" rx="80.6" ry="4.4"/>
        <ellipse class="st171" cx="189.6" cy="416.6" rx="79.6" ry="4.3"/>
        <ellipse class="st172" cx="189.6" cy="416.6" rx="78.6" ry="4.2"/>
        <ellipse class="st173" cx="189.6" cy="416.6" rx="77.7" ry="4.1"/>
        <ellipse class="st174" cx="189.6" cy="416.6" rx="76.7" ry="4"/>
        <ellipse class="st175" cx="189.6" cy="416.6" rx="75.7" ry="3.9"/>
        <ellipse class="st176" cx="189.6" cy="416.6" rx="74.7" ry="3.8"/>
        <ellipse class="st177" cx="189.6" cy="416.6" rx="73.7" ry="3.7"/>
        <ellipse class="st178" cx="189.6" cy="416.6" rx="72.8" ry="3.6"/>
        <ellipse class="st179" cx="189.6" cy="416.6" rx="71.8" ry="3.6"/>
    </g>
    <g class="st180">
        <g class="st181">
            <path class="st182" d="M543.4 567H427.9v-36.4h115.5V567zm-114.8-.8h114v-34.9h-114v34.9z"/>
            <path class="st182" d="M441.1 558.5V539h14.5v3.3H445v4.3h9.8v3.3H445v5.3h10.9v3.3h-14.8zM459.3 558.5V539h6.3c2.4 0 4 .1 4.7.3 1.1.3 2.1.9 2.8 1.9.8 1 1.1 2.2 1.1 3.8 0 1.2-.2 2.2-.7 3-.4.8-1 1.5-1.7 1.9-.7.5-1.4.8-2 .9-.9.2-2.3.3-4.1.3h-2.6v7.4h-3.8zm3.9-16.2v5.5h2.2c1.6 0 2.6-.1 3.1-.3.5-.2.9-.5 1.2-1 .3-.4.4-.9.4-1.5 0-.7-.2-1.3-.6-1.8-.4-.5-.9-.7-1.6-.9-.5-.1-1.4-.1-2.8-.1h-1.9zM476.4 552.1l3.8-.4c.2 1.3.7 2.2 1.4 2.8.7.6 1.7.9 2.9.9 1.3 0 2.2-.3 2.9-.8.6-.5 1-1.2 1-1.9 0-.5-.1-.9-.4-1.2-.3-.3-.7-.6-1.4-.8-.5-.2-1.5-.4-3.2-.9-2.1-.5-3.6-1.2-4.4-1.9-1.2-1.1-1.8-2.4-1.8-3.9 0-1 .3-1.9.8-2.8.6-.9 1.4-1.5 2.4-2 1.1-.5 2.3-.7 3.8-.7 2.4 0 4.3.5 5.5 1.6 1.2 1.1 1.9 2.5 1.9 4.3l-3.9.2c-.2-1-.5-1.7-1.1-2.2-.6-.4-1.4-.7-2.5-.7s-2 .2-2.7.7c-.4.3-.6.7-.6 1.2s.2.9.6 1.2c.5.4 1.7.9 3.6 1.3 1.9.5 3.3.9 4.3 1.4.9.5 1.6 1.1 2.2 2 .5.8.8 1.9.8 3.1 0 1.1-.3 2.2-.9 3.1-.6 1-1.5 1.7-2.6 2.2-1.1.5-2.5.7-4.2.7-2.5 0-4.4-.6-5.7-1.7-1.4-.9-2.2-2.6-2.5-4.8zM511.9 558.5h-3.7v-14.1c-1.4 1.3-3 2.2-4.8 2.8v-3.4c1-.3 2-.9 3.2-1.8 1.1-.9 1.9-1.9 2.4-3.1h3v19.6zM523.8 538.9c1.9 0 3.4.7 4.4 2 1.3 1.6 1.9 4.2 1.9 7.9s-.6 6.3-1.9 8c-1.1 1.3-2.5 2-4.4 2-1.9 0-3.4-.7-4.6-2.2-1.2-1.5-1.7-4.1-1.7-7.8s.6-6.3 1.9-7.9c1.1-1.3 2.5-2 4.4-2zm0 3.1c-.5 0-.9.1-1.2.4-.4.3-.6.8-.8 1.5-.3 1-.4 2.6-.4 4.9 0 2.3.1 3.9.3 4.7.2.9.5 1.4.9 1.7.4.3.8.4 1.2.4.5 0 .9-.1 1.2-.4.4-.3.6-.8.8-1.5.3-1 .4-2.6.4-4.9 0-2.3-.1-3.9-.3-4.7-.2-.9-.5-1.4-.9-1.7-.3-.2-.7-.4-1.2-.4z"/>
        </g>
        <g class="st181">
            <path class="st182" d="M425 528h6.5v6.5H425z"/>
            <path class="st182" d="M431.9 534.9h-7.3v-7.3h7.3v7.3zm-6.5-.8h5.8v-5.8h-5.8v5.8z"/>
        </g>
        <g class="st181">
            <path class="st182" d="M425 563.3h6.5v6.5H425z"/>
            <path class="st182" d="M431.9 570.2h-7.3V563h7.3v7.2zm-6.5-.7h5.8v-5.7h-5.8v5.7z"/>
        </g>
        <g class="st181">
            <path class="st182" d="M539.7 528h6.5v6.5h-6.5z"/>
            <path class="st182" d="M546.6 534.9h-7.3v-7.3h7.3v7.3zm-6.5-.8h5.7v-5.8h-5.7v5.8z"/>
        </g>
        <g class="st181">
            <path class="st182" d="M539.7 563.3h6.5v6.5h-6.5z"/>
            <path class="st182" d="M546.6 570.2h-7.3V563h7.3v7.2zm-6.5-.7h5.7v-5.7h-5.7v5.7z"/>
        </g>
        <g class="st181">
            <path class="st182" d="M482.4 528h6.5v6.5h-6.5z"/>
            <path class="st182" d="M489.3 534.9H482v-7.3h7.3v7.3zm-6.5-.8h5.7v-5.8h-5.7v5.8z"/>
        </g>
        <g class="st181">
            <path class="st182" d="M482.4 563.3h6.5v6.5h-6.5z"/>
            <path class="st182" d="M489.3 570.2H482V563h7.3v7.2zm-6.5-.7h5.7v-5.7h-5.7v5.7z"/>
        </g>
    </g>
    <linearGradient id="SVGID_2_" gradientUnits="userSpaceOnUse" x1="75.368" y1="23.207" x2="75.368" y2="317.48">
        <stop offset="0" stop-color="#0ff"/>
        <stop offset=".157" stop-color="#00fbff"/>
        <stop offset=".326" stop-color="#0ef"/>
        <stop offset=".5" stop-color="#00d8ff"/>
        <stop offset=".679" stop-color="#00baff"/>
        <stop offset=".86" stop-color="#0093ff"/>
        <stop offset="1" stop-color="#0070ff"/>
    </linearGradient>
    <path class="st183" d="M143.3 364.3c-4-1-8.1.7-10.3 3.9-27.4-8.7-52.6-24-73.2-44.6-34.3-34.3-53.2-80-53.2-128.7 0-29.9 7.3-59.5 21.1-85.5 8.4-16 19.2-30.5 32-43.4 18.1-18.1 39.2-31.9 62.7-41 2.4 3 6.6 4.4 10.5 3.2 5.2-1.6 8.1-7.1 6.5-12.3-1.6-5.2-7.1-8.1-12.3-6.5-4.2 1.3-6.9 5.2-6.9 9.4C95.8 28.3 74 42.6 55.1 61.4c-13.3 13.3-24.5 28.4-33.2 44.8C7.6 133.2 0 163.8 0 194.8c0 50.4 19.6 97.8 55.1 133.4 21.4 21.4 47.5 37.3 76.1 46.3a9.9 9.9 0 0 0 7.4 8.9c5.3 1.3 10.6-1.9 11.9-7.2 1.2-5.3-2-10.7-7.2-11.9z"/>
    <linearGradient id="SVGID_3_" gradientUnits="userSpaceOnUse" x1="283.844" y1="23.209" x2="283.844" y2="317.481">
        <stop offset="0" stop-color="#0ff"/>
        <stop offset=".157" stop-color="#00fbff"/>
        <stop offset=".326" stop-color="#0ef"/>
        <stop offset=".5" stop-color="#00d8ff"/>
        <stop offset=".679" stop-color="#00baff"/>
        <stop offset=".86" stop-color="#0093ff"/>
        <stop offset="1" stop-color="#0070ff"/>
    </linearGradient>
    <path class="st184" d="M371.3 224.6c-5.3-1.1-10.5 2.4-11.5 7.7-.8 4.1 1 8.1 4.4 10.2-8.2 30.5-24.3 58.4-46.9 81-29.7 29.7-68.4 48-110 52.2-1.6-3.5-5.1-5.9-9.2-5.8-5.4.1-9.7 4.7-9.5 10.1.1 5.4 4.7 9.7 10.1 9.5 4.4-.1 8.1-3.2 9.2-7.3 43.1-4.3 83.3-23.3 114.1-54.1 23.5-23.5 40.2-52.4 48.7-84.2 4.1-.5 7.6-3.5 8.5-7.8.9-5.2-2.6-10.4-7.9-11.5z"/>
    <linearGradient id="SVGID_4_" gradientUnits="userSpaceOnUse" x1="283.579" y1="23.208" x2="283.579" y2="317.482">
        <stop offset="0" stop-color="#0ff"/>
        <stop offset=".157" stop-color="#00fbff"/>
        <stop offset=".326" stop-color="#0ef"/>
        <stop offset=".5" stop-color="#00d8ff"/>
        <stop offset=".679" stop-color="#00baff"/>
        <stop offset=".86" stop-color="#0093ff"/>
        <stop offset="1" stop-color="#0070ff"/>
    </linearGradient>
    <path class="st185" d="M198 19.6c4.1.1 7.7-2.3 9.2-5.8 41.5 4.2 80.3 22.6 110 52.2 22 22 37.9 49.1 46.3 78.7-3.3 2.2-5.1 6.2-4.2 10.2 1.1 5.3 6.3 8.7 11.6 7.5 5.3-1.1 8.7-6.3 7.5-11.6-.9-4.3-4.5-7.2-8.6-7.7-8.7-30.8-25.1-58.9-48-81.7-30.8-30.8-71-49.8-114.1-54.1-1.1-4.1-4.7-7.1-9.2-7.3-5.4-.1-9.9 4.1-10.1 9.5-.1 5.5 4.2 10 9.6 10.1z"/>
    <linearGradient id="SVGID_5_" gradientUnits="userSpaceOnUse" x1="238.557" y1="23.209" x2="238.557" y2="317.481">
        <stop offset="0" stop-color="#0ff"/>
        <stop offset=".157" stop-color="#00fbff"/>
        <stop offset=".326" stop-color="#0ef"/>
        <stop offset=".5" stop-color="#00d8ff"/>
        <stop offset=".679" stop-color="#00baff"/>
        <stop offset=".86" stop-color="#0093ff"/>
        <stop offset="1" stop-color="#0070ff"/>
    </linearGradient>
    <path class="st186" d="M289.1 194.8c0-25.8-9.4-50.5-26.5-69.6-14.7-16.5-34.1-27.5-55.2-31.7-.8-4.3-4.5-7.7-9.1-7.9-5.4-.3-10 3.9-10.3 9.3-.3 5.4 3.9 10 9.3 10.3 3.9.2 7.4-1.9 9.1-5.2 44 8.8 76.1 48 76.1 94.9 0 34.1-17.8 65.7-46.1 83.1-2.8-2.5-6.8-3.3-10.5-1.7-5 2.1-7.3 7.9-5.1 12.9 2.1 5 7.9 7.3 12.9 5.1 4.2-1.8 6.4-6.2 5.8-10.5 30.4-18.7 49.6-52.6 49.6-89z"/>
    <linearGradient id="SVGID_6_" gradientUnits="userSpaceOnUse" x1="121.207" y1="23.208" x2="121.207" y2="317.48">
        <stop offset="0" stop-color="#0ff"/>
        <stop offset=".157" stop-color="#00fbff"/>
        <stop offset=".326" stop-color="#0ef"/>
        <stop offset=".5" stop-color="#00d8ff"/>
        <stop offset=".679" stop-color="#00baff"/>
        <stop offset=".86" stop-color="#0093ff"/>
        <stop offset="1" stop-color="#0070ff"/>
    </linearGradient>
    <path class="st187" d="M141.1 293.4c4.9 2.2 10.7 0 13-4.9 2.2-4.9 0-10.7-4.9-13-3.6-1.6-7.7-.9-10.5 1.6-27.4-17.5-44.7-48.8-44.7-82.3 0-23.5 8-45.5 22.8-63 3.4 1.5 7.5 1 10.4-1.7 4-3.6 4.4-9.8.7-13.8-3.6-4-9.8-4.4-13.8-.7-3.4 3.1-4.1 8-2.1 11.8-15.9 18.7-24.5 42.4-24.5 67.5 0 35.9 18.6 69.4 48.1 88.1-.8 4.1 1.4 8.5 5.5 10.4z"/>
    <linearGradient id="SVGID_7_" gradientUnits="userSpaceOnUse" x1="184.735" y1="23.208" x2="184.735" y2="317.481">
        <stop offset="0" stop-color="#0ff"/>
        <stop offset=".157" stop-color="#00fbff"/>
        <stop offset=".326" stop-color="#0ef"/>
        <stop offset=".5" stop-color="#00d8ff"/>
        <stop offset=".679" stop-color="#00baff"/>
        <stop offset=".86" stop-color="#0093ff"/>
        <stop offset="1" stop-color="#0070ff"/>
    </linearGradient>
    <path class="st188" d="M33.6 152.4c-3.7 13.7-5.6 28-5.6 42.4 0 7.5.5 14.9 1.6 22.3-3.7 2.1-5.9 6.4-4.9 10.7 1.2 5.3 6.5 8.6 11.7 7.4 5.3-1.2 8.6-6.5 7.4-11.8-.9-3.9-4.1-6.8-7.8-7.5-1-7-1.5-14.1-1.5-21.2 0-13.8 1.8-27.5 5.4-40.6C58 87.4 119.1 40.7 188.5 40.7c61.3 0 115.4 35.1 140.3 90.2-2.9 2.6-4.1 6.7-2.7 10.6 1.8 5.1 7.4 7.8 12.5 5.9 5.1-1.8 7.8-7.4 5.9-12.5-1.5-4.2-5.5-6.6-9.7-6.4-11.8-26.2-30.4-48.6-54.1-65.3-27-18.9-58.9-29-92.2-29-72.4 0-136.1 48.6-154.9 118.2z"/>
    <linearGradient id="SVGID_8_" gradientUnits="userSpaceOnUse" x1="136.053" y1="23.21" x2="136.053" y2="317.48">
        <stop offset="0" stop-color="#0ff"/>
        <stop offset=".157" stop-color="#00fbff"/>
        <stop offset=".326" stop-color="#0ef"/>
        <stop offset=".5" stop-color="#00d8ff"/>
        <stop offset=".679" stop-color="#00baff"/>
        <stop offset=".86" stop-color="#0093ff"/>
        <stop offset="1" stop-color="#0070ff"/>
    </linearGradient>
    <path class="st189" d="M63.6 273.4c-2.7-4.7-8.7-6.2-13.4-3.5-4.7 2.7-6.2 8.7-3.5 13.4 2.3 3.8 6.7 5.5 10.8 4.5 30.1 42.4 78.3 67.5 131 67.5 6.6 0 13.3-.4 19.9-1.2 2 3.8 6.3 5.9 10.7 5 5.3-1.1 8.7-6.3 7.5-11.6-1.1-5.3-6.3-8.7-11.6-7.5-4 .8-6.9 4-7.6 7.7-6.2.8-12.6 1.2-18.9 1.2-50.4 0-96.7-24-125.5-64.5 2.3-3.2 2.7-7.5.6-11z"/>
    <linearGradient id="SVGID_9_" gradientUnits="userSpaceOnUse" x1="283.418" y1="23.203" x2="283.418" y2="317.48">
        <stop offset="0" stop-color="#0ff"/>
        <stop offset=".157" stop-color="#00fbff"/>
        <stop offset=".326" stop-color="#0ef"/>
        <stop offset=".5" stop-color="#00d8ff"/>
        <stop offset=".679" stop-color="#00baff"/>
        <stop offset=".86" stop-color="#0093ff"/>
        <stop offset="1" stop-color="#0070ff"/>
    </linearGradient>
    <path class="st190" d="M304 315.5c3.8-3.8 3.9-10 0-13.9-3.8-3.8-10-3.9-13.9 0-2.9 2.9-3.6 7.2-2.1 10.8-3.9 3.3-8.1 6.5-12.3 9.4-3.1-2.4-7.4-2.9-11-.8-4.7 2.7-6.3 8.7-3.6 13.4 2.7 4.7 8.7 6.3 13.4 3.6 3.8-2.2 5.5-6.5 4.6-10.6 4.6-3.2 9.1-6.6 13.3-10.2 3.9 1.9 8.5 1.3 11.6-1.7z"/>
    <linearGradient id="SVGID_10_" gradientUnits="userSpaceOnUse" x1="336.637" y1="23.207" x2="336.637" y2="317.481">
        <stop offset="0" stop-color="#0ff"/>
        <stop offset=".157" stop-color="#00fbff"/>
        <stop offset=".326" stop-color="#0ef"/>
        <stop offset=".5" stop-color="#00d8ff"/>
        <stop offset=".679" stop-color="#00baff"/>
        <stop offset=".86" stop-color="#0093ff"/>
        <stop offset="1" stop-color="#0070ff"/>
    </linearGradient>
    <path class="st191" d="M354.7 178.5c-.6-5.4-5.5-9.2-10.9-8.6-5.4.6-9.2 5.5-8.6 10.9.5 4.1 3.4 7.3 7.1 8.3.1 1.9.1 3.8.1 5.7 0 21.9-4.4 42.8-13.1 62.5-3.8-.4-7.7 1.4-9.6 5-2.6 4.7-.9 10.7 3.8 13.3 4.7 2.6 10.7.9 13.3-3.8 2.2-3.9 1.3-8.6-1.7-11.6 9-20.4 13.8-42.8 13.8-65.3 0-2.1-.1-4.1-.2-6.2 4-1.8 6.5-5.9 6-10.2z"/>
    <linearGradient id="SVGID_11_" gradientUnits="userSpaceOnUse" x1="191.333" y1="23.208" x2="191.333" y2="317.48">
        <stop offset="0" stop-color="#0ff"/>
        <stop offset=".157" stop-color="#00fbff"/>
        <stop offset=".326" stop-color="#0ef"/>
        <stop offset=".5" stop-color="#00d8ff"/>
        <stop offset=".679" stop-color="#00baff"/>
        <stop offset=".86" stop-color="#0093ff"/>
        <stop offset="1" stop-color="#0070ff"/>
    </linearGradient>
    <path class="st192" d="M323.2 205c.2-5.4-4-10-9.4-10.2-5.4-.2-10 4-10.2 9.4-.2 4 2.1 7.6 5.6 9.2-8.8 61.1-59.3 106.1-121.1 106.1-67.3 0-122-55.9-122-124.7C66 133 110.7 80.7 169.4 71.5c1.7 3.4 5.2 5.7 9.2 5.5 5.4-.2 9.6-4.8 9.4-10.2-.2-5.4-4.8-9.6-10.2-9.4-4.5.2-8.1 3.4-9.1 7.6-28.8 4.4-55.2 18.5-75 40.4-22 24.3-34.2 56-34.2 89.3 0 35 13.2 67.8 37.2 92.6 24.2 24.9 56.6 38.6 91.3 38.6 33.2 0 64.7-12.6 88.5-35.5 21.2-20.3 34.8-47.2 39-76.4 4.3-.9 7.5-4.5 7.7-9z"/>
</svg>
