<svg class="svgo svg-logo" id="Layer_1" data-name="Layer 1" xmlns="http://www.w3.org/2000/svg" viewBox="0 0 280.41 27.82"><defs><style>.cls-1{fill:#ffffff;}.cls-2{fill:#e6e756;}</style></defs><title>IC-logo-dark</title><path class="cls-1" d="M193.95,263.65h5.54v27.82h-5.54V263.65Z" transform="translate(-193.95 -263.65)"/><path class="cls-1" d="M206.83,291.47v-27.8h1.85l17.42,17.42V263.67h5.56v27.8h-2l-17.23-17.23v17.23h-5.56Z" transform="translate(-193.95 -263.65)"/><path class="cls-1" d="M253.92,264.6a12.94,12.94,0,0,1,4,2.78l-3.71,3.71a6.38,6.38,0,0,0-5.19-2.22q-3.34,0-4.26,1.58a2.17,2.17,0,0,0,0,2.69q0.93,1.11,4.26,1.67a13.8,13.8,0,0,1,6.39,2.32q2.87,1.95,2.87,6.21a7.13,7.13,0,0,1-3.07,5.74,11.23,11.23,0,0,1-7.14,2.41,16.47,16.47,0,0,1-6.47-1.11,14,14,0,0,1-4.45-3l3.71-3.71q1.85,2.22,6.3,2.59,3.71,0,4.62-1.58a2.94,2.94,0,0,0,0-3.15q-0.92-1.57-4.62-1.95a15,15,0,0,1-6.12-2q-2.78-1.67-2.78-5.74a6.92,6.92,0,0,1,3.16-5.92,11.13,11.13,0,0,1,6.5-2.23A15.51,15.51,0,0,1,253.92,264.6Z" transform="translate(-193.95 -263.65)"/><path class="cls-1" d="M264.51,263.65h5.54v27.82h-5.54V263.65Z" transform="translate(-193.95 -263.65)"/><path class="cls-1" d="M277.4,291.47V263.65h10.71q13,0,13,13.92t-13,13.9H277.4Zm10.71-5.54q7.39,0,7.41-8.36t-7.41-8.34H283v16.7h5.15Z" transform="translate(-193.95 -263.65)"/><path class="cls-1" d="M308,291.47V263.69l20.42,0v5.19H313.57v5.93h11.14V280H313.57v6.32H328.4v5.19H308Z" transform="translate(-193.95 -263.65)"/><path class="cls-2" d="M336.86,287.47a13.9,13.9,0,0,1,9.89-23.8A15,15,0,0,1,357,267.38l-3.71,4.06a10.25,10.25,0,0,0-6.5-2.22,8.17,8.17,0,0,0-6,2.33,8.08,8.08,0,0,0-2.29,5.93,8.33,8.33,0,0,0,2.32,6.15,8.2,8.2,0,0,0,6,2.28,10,10,0,0,0,6.47-2.21l3.71,4.06a15,15,0,0,1-10.21,3.71A13.52,13.52,0,0,1,336.86,287.47Z" transform="translate(-193.95 -263.65)"/><path class="cls-2" d="M364.8,287.47a14.32,14.32,0,1,1,9.91,4A13.47,13.47,0,0,1,364.8,287.47Zm9.93-1.2a7.81,7.81,0,0,0,6-2.5,9.48,9.48,0,0,0,0-12.42,8.5,8.5,0,0,0-12,0,9.48,9.48,0,0,0,0,12.42A7.85,7.85,0,0,0,374.73,286.28Z" transform="translate(-193.95 -263.65)"/><path class="cls-2" d="M396.58,263.67L404.48,284l8-20.37h5.93l-11.1,27.8h-5.56l-11.14-27.8h5.93Z" transform="translate(-193.95 -263.65)"/><path class="cls-2" d="M423.63,291.47V263.69l20.42,0v5.19H429.19v5.93h11.14V280H429.19v6.32H444v5.19H423.63Z" transform="translate(-193.95 -263.65)"/><path class="cls-2" d="M467.42,279.35l6.93,12.12H468L461.33,280h-5.08v11.49h-5.56v-27.8h12.12q9.73,0,9.73,8Q472.54,277.7,467.42,279.35Zm-11.17-4.56H464q3.35-.06,3.45-3.06-0.09-2.74-3.39-2.85h-7.84v5.91Z" transform="translate(-193.95 -263.65)"/></svg>